<?xml version="1.0" standalone="no"?>
<!DOCTYPE svg PUBLIC "-//W3C//DTD SVG 20010904//EN"
 "http://www.w3.org/TR/2001/REC-SVG-20010904/DTD/svg10.dtd">
<svg version="1.0" xmlns="http://www.w3.org/2000/svg"
 width="1280.000000pt" height="798.000000pt" viewBox="0 0 1280.000000 798.000000"
 preserveAspectRatio="xMidYMid meet">
<metadata>
Created by potrace 1.15, written by Peter Selinger 2001-2017
</metadata>
<g transform="translate(0.000000,798.000000) scale(0.100000,-0.100000)"
fill="#000000" stroke="none">
<path d="M6348 7966 c-42 -6 -80 -14 -84 -18 -4 -5 -20 -8 -36 -8 -36 0 -167
-61 -190 -89 -10 -12 -24 -21 -32 -21 -8 0 -53 -39 -100 -86 -76 -76 -96 -90
-129 -93 -4 -1 -12 -12 -17 -26 -5 -14 -17 -25 -28 -25 -21 0 -52 -30 -52 -50
0 -7 -17 -29 -39 -49 -30 -28 -40 -46 -45 -83 -4 -27 -13 -49 -22 -52 -11 -4
-15 -21 -15 -63 0 -32 0 -101 -1 -153 -1 -92 15 -180 44 -233 6 -12 11 -51 10
-87 -1 -36 1 -59 4 -52 3 6 14 12 24 12 19 0 40 -45 40 -86 0 -16 4 -22 14
-18 17 6 25 78 12 101 -11 20 -14 152 -3 156 4 1 7 36 7 77 0 182 9 247 41
289 11 13 19 30 19 38 0 7 12 18 27 24 15 6 34 15 41 22 23 18 84 37 124 37
20 0 40 5 43 10 4 7 13 6 27 -1 16 -9 26 -7 50 11 25 19 32 20 62 9 29 -11 38
-10 60 4 20 14 30 15 51 5 17 -8 35 -8 58 -2 21 7 42 7 60 0 19 -7 37 -7 59 2
20 7 37 8 49 2 24 -13 62 -13 76 1 8 8 21 7 47 -2 28 -10 44 -11 66 -2 23 9
33 8 50 -4 20 -14 26 -14 56 1 32 15 37 15 59 0 17 -11 36 -14 59 -10 20 4 37
2 41 -4 3 -5 21 -10 38 -10 19 -1 48 -12 72 -30 22 -16 50 -34 63 -40 12 -5
25 -18 29 -27 4 -10 15 -29 25 -42 10 -13 18 -32 18 -42 0 -11 5 -28 11 -38 9
-13 9 -26 1 -49 -6 -17 -7 -34 -3 -36 4 -3 9 -36 9 -73 2 -128 9 -240 15 -250
4 -6 0 -16 -8 -23 -19 -16 -20 -84 -1 -99 16 -13 18 -9 31 57 8 38 28 50 52
31 15 -13 16 -8 11 58 -4 50 -1 76 7 85 33 35 68 285 44 314 -7 8 -8 32 -4 62
5 38 3 53 -9 65 -9 9 -19 31 -23 49 -8 46 -30 86 -53 98 -11 6 -27 26 -35 46
-10 25 -22 36 -44 40 -19 4 -31 14 -35 29 -4 15 -16 24 -36 29 -17 3 -39 16
-50 28 -21 23 -88 91 -126 128 -12 11 -26 20 -32 20 -6 0 -25 14 -42 30 -17
17 -39 30 -50 30 -10 0 -22 5 -25 10 -9 15 -73 40 -101 40 -14 0 -32 4 -42 9
-17 10 -174 32 -202 30 -8 -1 -50 -7 -92 -13z"/>
<path d="M6430 7260 c-11 -11 -20 -29 -20 -40 0 -27 35 -60 64 -60 32 0 56 25
56 59 0 55 -61 80 -100 41z"/>
<path d="M6045 7135 c-27 -8 -53 -14 -56 -15 -15 -1 -127 -81 -132 -94 -3 -7
17 1 43 19 76 51 142 70 245 70 107 0 157 -19 231 -87 44 -40 46 -41 31 -13
-23 45 -66 85 -116 108 -58 25 -180 32 -246 12z"/>
<path d="M6697 7139 c-56 -13 -89 -33 -130 -78 -50 -55 -47 -71 4 -27 114 97
264 112 419 40 30 -14 65 -35 78 -46 12 -12 22 -17 22 -11 0 15 -64 65 -115
90 -77 39 -192 52 -278 32z"/>
<path d="M5915 6911 c12 -5 73 -14 135 -21 211 -21 201 -19 238 -58 l34 -36
-7 34 c-4 19 -13 45 -21 58 -14 21 -20 22 -158 22 -79 0 -165 2 -192 5 -34 4
-43 3 -29 -4z"/>
<path d="M6797 6913 l-158 -4 -19 -32 c-11 -17 -20 -43 -20 -57 l0 -24 17 24
c35 51 27 49 247 70 115 11 206 31 126 27 -19 -1 -106 -3 -193 -4z"/>
<path d="M5620 6682 c0 -104 25 -247 62 -352 50 -141 53 -162 40 -254 -16
-112 -15 -129 9 -160 18 -23 28 -27 62 -24 55 4 78 36 84 122 5 58 3 70 -15
89 -11 12 -22 31 -24 42 -2 11 -10 19 -16 17 -7 -1 -12 5 -12 13 0 9 -18 51
-40 95 -49 98 -52 119 -5 30 20 -36 45 -74 56 -85 16 -15 14 -7 -10 35 -37 67
-77 171 -101 265 -24 94 -25 42 -1 -60 11 -44 18 -81 17 -83 -2 -1 -13 27 -25
63 -15 45 -24 101 -28 178 -6 117 -14 147 -38 147 -12 0 -15 -16 -15 -78z"/>
<path d="M7252 6743 c-5 -10 -12 -70 -15 -133 -6 -125 -29 -208 -88 -324 -17
-33 -34 -74 -38 -91 -4 -16 -13 -30 -21 -30 -8 0 -16 -9 -18 -20 -2 -11 -13
-30 -24 -42 -18 -19 -20 -31 -15 -89 3 -45 12 -75 26 -95 24 -32 22 -34 -35
-44 -41 -6 -42 -6 -47 27 -9 48 7 154 25 175 9 10 22 31 28 47 9 25 9 27 -4
17 -7 -6 -18 -11 -22 -9 -5 1 -61 -24 -124 -55 -170 -83 -250 -102 -440 -101
-136 0 -167 4 -254 27 -55 15 -143 48 -195 74 -121 60 -123 61 -81 23 46 -40
199 -115 275 -134 157 -40 334 -43 475 -9 80 19 221 83 275 125 63 49 74 54
28 11 l-43 -39 0 -84 c0 -55 4 -80 9 -71 7 11 10 5 13 -20 3 -33 5 -34 53 -40
28 -4 60 -9 72 -13 26 -8 47 -63 37 -100 -11 -46 -10 -186 2 -186 7 0 13 -37
17 -97 3 -54 13 -174 22 -268 31 -305 9 -897 -40 -1114 l-17 -71 -37 0 c-117
0 -330 61 -417 119 -52 36 -65 39 -39 11 55 -61 211 -125 383 -156 109 -20
106 -7 31 -161 -53 -110 -127 -201 -188 -233 -66 -33 -154 -51 -286 -57 -131
-5 -256 7 -429 43 -38 8 -71 12 -73 10 -8 -8 79 -58 140 -82 85 -34 211 -62
302 -69 155 -12 332 41 430 130 l40 35 -65 -34 c-176 -94 -421 -111 -693 -50
-38 9 -67 18 -65 20 2 1 46 -4 98 -13 60 -10 162 -16 275 -17 161 -1 188 1
251 21 169 53 293 202 367 439 51 163 79 444 81 814 0 236 -11 398 -41 594 -5
31 -3 37 7 31 10 -6 11 -4 5 11 -5 10 -11 118 -14 240 -4 160 -10 225 -19 237
-11 13 -10 16 9 19 12 2 31 15 42 30 20 26 20 32 7 141 l-13 115 36 103 c21
57 44 133 52 169 17 79 37 274 29 295 -8 20 -31 19 -42 -2z"/>
<path d="M6307 6608 c-18 -14 -41 -68 -32 -76 3 -3 10 9 16 27 8 22 23 38 43
47 24 10 26 13 10 14 -11 0 -28 -6 -37 -12z"/>
<path d="M6615 6613 c29 -7 45 -22 60 -57 12 -28 13 -29 14 -8 1 30 -42 72
-71 71 -20 -1 -21 -2 -3 -6z"/>
<path d="M7201 6538 c-14 -68 -69 -216 -108 -288 l-25 -45 27 30 c54 62 106
194 120 308 10 76 1 73 -14 -5z"/>
<path d="M6333 6514 c-28 -12 -10 -24 34 -24 29 0 43 4 38 9 -13 13 -57 21
-72 15z"/>
<path d="M6553 6513 c-38 -7 -26 -23 18 -23 28 0 39 4 37 13 -5 13 -22 17 -55
10z"/>
<path d="M6345 6384 c-22 -8 -58 -14 -79 -12 -42 3 -61 -16 -28 -26 10 -4 45
-22 77 -41 56 -34 60 -35 165 -35 93 0 111 3 133 20 14 12 47 30 72 41 57 25
61 49 6 42 -23 -3 -59 1 -91 12 -49 16 -54 16 -89 1 -33 -16 -39 -16 -66 -2
-36 19 -48 19 -100 0z"/>
<path d="M6330 6263 c0 -6 8 -16 18 -24 13 -11 44 -14 132 -13 139 3 123 0
138 24 12 20 12 20 -15 8 -38 -18 -235 -17 -257 1 -9 8 -16 9 -16 4z"/>
<path d="M5893 5953 c6 -102 8 -109 43 -160 37 -54 101 -116 139 -134 11 -6 8
-1 -7 11 -15 11 -41 42 -58 68 -17 26 -42 62 -55 81 -24 33 -36 111 -17 111
11 0 -31 130 -42 130 -5 0 -6 -46 -3 -107z"/>
<path d="M5950 6018 c0 -2 11 -34 24 -73 20 -56 32 -76 63 -98 56 -42 123 -80
129 -74 3 3 -13 15 -36 27 -51 26 -47 37 5 15 21 -8 40 -14 42 -12 1 2 -21 20
-49 40 -78 53 -135 114 -120 129 8 8 31 -2 94 -44 46 -31 105 -63 131 -72 113
-38 75 -10 -132 95 -120 62 -151 75 -151 67z"/>
<path d="M6820 5937 c-36 -16 -105 -40 -155 -52 -49 -13 -80 -24 -67 -24 36
-1 165 20 185 30 13 8 17 6 17 -11 0 -27 12 -25 41 6 l24 26 5 -44 5 -43 10
40 c6 22 8 54 5 71 l-5 30 -65 -29z"/>
<path d="M5685 5901 c-5 -9 -22 -15 -175 -62 -41 -12 -84 -28 -95 -35 -11 -6
-78 -24 -150 -38 -336 -69 -600 -203 -775 -394 -210 -228 -258 -460 -266
-1297 -2 -288 -1 -453 5 -440 5 11 11 31 12 45 1 14 5 -33 10 -105 8 -138 37
-294 66 -354 17 -34 21 -36 70 -39 35 -2 101 9 198 33 182 45 213 57 124 49
-111 -9 -248 28 -313 85 -27 24 -63 100 -86 183 -65 235 -88 582 -39 595 25 7
29 36 13 96 -7 28 -14 70 -14 92 l0 40 30 -60 c20 -40 28 -50 24 -30 -20 101
-25 152 -30 348 -6 190 -5 217 8 217 11 0 19 18 26 58 30 156 45 213 76 277
35 75 129 198 196 259 90 81 245 165 432 234 l57 21 -21 -35 -21 -36 54 41
c58 44 139 74 231 85 32 4 60 12 63 17 4 5 14 9 24 9 10 0 24 7 31 15 9 11 33
15 86 15 67 0 75 -2 90 -25 23 -35 34 -31 34 14 0 22 8 48 18 62 21 27 34 69
22 69 -5 0 -11 -4 -15 -9z"/>
<path d="M5726 5783 c-16 -276 -27 -1116 -17 -1284 14 -219 37 -410 62 -508
26 -104 96 -242 166 -326 l58 -70 3 32 c3 27 -6 44 -49 95 -72 86 -153 260
-108 232 19 -11 166 19 238 48 73 31 206 113 231 143 7 9 -20 -5 -60 -29 -148
-92 -309 -140 -401 -120 l-44 9 -17 70 c-10 39 -22 104 -28 145 -19 131 -28
534 -20 883 7 287 11 341 24 356 9 10 16 22 16 28 0 6 7 16 15 23 17 14 3 40
-21 40 -19 0 -18 19 2 41 14 16 39 187 28 198 -2 2 -13 -4 -24 -14 -20 -18
-20 -18 -20 18 0 31 4 37 21 37 12 0 19 5 16 13 -2 6 -9 11 -15 10 -6 -2 -16
6 -22 17 -20 38 -27 20 -34 -87z"/>
<path d="M7202 5819 c18 -22 43 -53 56 -67 22 -26 23 -26 19 -4 -7 32 0 27 22
-15 l20 -38 1 33 c0 40 8 40 45 2 34 -36 45 -38 45 -7 0 18 2 19 11 7 8 -12
12 -12 16 -2 3 9 19 0 49 -28 44 -41 64 -49 64 -28 0 6 6 4 13 -7 8 -10 19
-15 25 -11 6 4 18 -6 27 -23 9 -19 21 -28 29 -25 8 3 17 1 21 -5 10 -16 25
-13 25 5 0 24 25 1 40 -36 15 -36 34 -41 20 -5 -13 33 0 32 35 -5 33 -34 45
-38 45 -12 0 13 7 9 28 -16 31 -37 39 -39 44 -14 3 13 14 6 51 -33 25 -27 52
-50 60 -50 7 0 27 -16 45 -35 17 -19 32 -29 32 -22 0 9 7 11 20 7 13 -4 20 -2
20 7 0 7 14 -4 31 -25 17 -20 35 -35 40 -32 5 4 9 -1 9 -9 0 -9 7 -16 15 -16
8 0 18 0 23 -1 4 0 21 -25 38 -55 22 -39 33 -51 37 -40 4 9 13 16 22 16 24 0
-35 81 -116 161 -107 105 -231 181 -384 234 -44 16 -87 34 -95 41 -8 7 -36 15
-62 19 -26 4 -54 16 -64 26 -9 10 -27 19 -40 19 -30 0 -72 16 -90 35 -9 8 -29
15 -47 15 -17 0 -40 8 -51 18 -18 16 -177 62 -215 62 -6 0 3 -18 21 -41z"/>
<path d="M5438 5650 c-11 -82 -10 -616 2 -792 30 -434 93 -730 200 -935 253
-484 650 -694 1130 -596 156 31 150 40 -25 35 -398 -12 -653 57 -821 223 -108
106 -244 329 -298 488 -91 267 -155 787 -174 1407 -5 164 -9 210 -14 170z"/>
<path d="M7436 5308 c-27 -652 -109 -1166 -227 -1416 -89 -192 -270 -379 -440
-456 -30 -14 -47 -25 -39 -25 25 -1 139 57 205 103 120 87 263 264 334 416 70
151 131 502 161 925 12 176 25 615 18 615 -3 0 -8 -73 -12 -162z"/>
<path d="M5215 5205 c-10 -61 0 -339 20 -575 54 -620 161 -1181 271 -1419 37
-80 39 -100 5 -53 -86 121 -194 498 -266 925 -36 217 -81 554 -91 692 -4 47
-11 85 -17 85 -14 0 -1 -267 23 -472 47 -400 140 -877 207 -1061 16 -46 21
-73 15 -79 -36 -36 -111 242 -189 694 -33 196 -38 216 -41 162 -2 -34 6 -123
18 -198 11 -76 20 -157 20 -179 0 -36 -2 -39 -15 -27 -37 38 -66 348 -104
1135 l-8 160 -4 -150 c-17 -739 56 -1283 208 -1556 2 -3 -27 0 -64 7 -37 7
-95 13 -128 13 -59 0 -59 -1 50 -23 96 -21 136 -36 316 -125 113 -55 208 -101
212 -101 4 0 -4 17 -18 38 -28 43 -120 289 -166 447 -86 289 -175 892 -233
1560 -11 135 -13 145 -21 100z"/>
<path d="M8405 5165 c4 -11 16 -45 26 -75 69 -196 115 -492 135 -878 11 -216
27 -134 27 142 0 335 -31 529 -112 701 -36 76 -92 158 -76 110z"/>
<path d="M5341 4989 c-4 -596 68 -1178 193 -1551 63 -187 156 -366 224 -431
l29 -28 134 3 134 3 -52 18 c-234 82 -412 434 -478 947 -9 69 -19 127 -22 130
-9 8 7 -193 22 -277 41 -238 163 -569 264 -719 17 -25 31 -49 31 -55 0 -46
-94 84 -154 213 -147 316 -253 860 -296 1523 -6 94 -15 224 -19 290 l-8 120
-2 -186z"/>
<path d="M7638 5020 c-15 -286 -64 -632 -124 -878 -66 -269 -182 -534 -298
-678 -191 -237 -440 -338 -795 -321 -256 13 -434 89 -592 253 -102 107 -183
238 -224 362 -23 71 -31 60 -9 -14 51 -176 149 -340 271 -454 86 -80 224 -154
348 -186 100 -26 367 -26 485 -1 180 39 317 109 442 226 272 255 453 778 498
1436 6 88 10 214 8 280 l-3 120 -7 -145z"/>
<path d="M7727 4910 c-100 -624 -209 -1047 -340 -1306 -95 -188 -251 -368
-393 -452 -390 -231 -985 -145 -1228 178 -51 69 -58 62 -20 -20 37 -80 83
-130 195 -215 173 -130 114 -118 634 -123 l450 -4 117 119 c103 106 198 228
198 256 0 5 -16 -11 -36 -37 -52 -68 -155 -149 -255 -201 -111 -57 -125 -58
-29 -1 227 134 371 359 503 786 112 362 181 662 212 922 22 185 16 252 -8 98z"/>
<path d="M7836 4913 c-3 -21 -24 -231 -46 -468 -22 -236 -50 -539 -63 -672
-12 -133 -20 -240 -16 -237 9 5 36 106 53 204 20 106 42 308 56 510 11 163 30
693 25 698 -2 2 -6 -14 -9 -35z"/>
<path d="M4515 4720 c7 -317 33 -594 76 -805 53 -253 169 -434 340 -525 76
-40 81 -38 26 11 -99 86 -273 405 -316 576 -47 184 -85 451 -116 798 l-14 160
4 -215z"/>
<path d="M4891 4905 c-2 -20 40 -614 54 -785 9 -96 22 -213 31 -260 20 -108
76 -279 115 -350 17 -30 27 -46 24 -35 -15 48 -56 233 -84 380 -33 175 -55
336 -101 760 -28 254 -37 320 -39 290z"/>
<path d="M4656 4815 c25 -427 87 -862 149 -1044 64 -189 188 -350 337 -435
l33 -20 -41 45 c-95 105 -209 313 -269 491 -37 113 -91 370 -160 771 -25 144
-48 267 -50 272 -3 6 -2 -30 1 -80z"/>
<path d="M8200 4862 c0 -49 -34 -379 -61 -592 -43 -348 -82 -505 -160 -649
-86 -160 -250 -356 -333 -398 -28 -14 -71 -40 -96 -57 -35 -23 -57 -31 -96
-32 -45 -1 -58 -7 -109 -49 -33 -26 -61 -43 -63 -37 -2 6 24 69 57 141 82 177
103 227 151 366 54 156 137 494 117 475 -3 -3 -17 -52 -32 -110 -36 -143 -144
-464 -195 -579 -88 -200 -149 -282 -253 -337 l-72 -39 55 -6 c30 -3 71 -12 90
-21 25 -11 40 -12 51 -5 25 16 102 -33 123 -78 15 -31 16 -44 6 -93 -14 -67
-29 -100 -30 -64 0 20 -3 21 -20 12 -24 -13 -26 -3 -3 22 22 25 -2 23 -27 -2
-21 -21 -27 -50 -9 -50 6 0 8 -9 4 -21 -7 -21 -5 -22 44 -15 83 11 84 12 79
73 -6 74 9 78 18 5 l6 -59 108 -7 c117 -7 138 -2 247 53 84 42 90 55 22 46
-30 -4 -74 -14 -99 -21 -78 -24 -94 -19 -161 42 -33 31 -63 53 -66 51 -2 -3 3
-19 11 -36 20 -38 20 -65 0 -82 -26 -22 -47 2 -59 67 -6 32 -17 69 -23 81 -17
30 -69 68 -117 84 -22 7 -45 16 -50 21 -11 7 -34 6 -50 -4 -5 -3 -18 -3 -28 1
-14 5 -5 13 40 33 32 15 76 32 98 39 22 7 51 20 64 30 13 11 39 19 58 19 22 0
50 11 76 29 171 118 240 141 447 152 l165 9 53 36 c121 80 194 190 227 339 15
67 34 416 22 405 -3 -3 -13 -50 -21 -105 -29 -191 -88 -354 -171 -470 -84
-118 -172 -167 -330 -185 -55 -6 -115 -15 -134 -20 -19 -5 -36 -8 -38 -7 -1 2
21 21 49 43 86 65 188 174 245 262 99 150 129 270 158 627 17 209 32 705 22
705 -4 0 -7 -17 -7 -38z"/>
<path d="M8352 4550 c-68 -573 -95 -714 -168 -869 -63 -136 -155 -244 -279
-331 -71 -50 -43 -45 70 13 119 62 227 172 289 297 81 166 94 249 116 785 18
413 11 440 -28 105z"/>
<path d="M2207 4763 c-2 -5 -8 -26 -12 -48 -8 -44 -51 -140 -71 -156 -10 -8
-16 -1 -25 34 -14 56 -34 66 -63 30 -31 -39 -35 -51 -35 -124 l-1 -66 -77 -55
c-43 -30 -100 -70 -128 -88 -188 -125 -362 -351 -423 -551 -35 -113 -38 -236
-9 -360 1 -6 -17 -26 -40 -45 l-41 -35 14 46 c76 253 3 497 -184 616 -142 90
-360 89 -407 -2 -24 -45 -19 -87 14 -120 36 -35 61 -37 97 -6 22 19 26 29 20
50 -8 33 -26 35 -26 3 0 -32 -29 -42 -53 -18 -15 16 -17 24 -8 40 14 27 51 34
108 22 63 -14 119 -48 178 -107 111 -111 131 -261 63 -460 -12 -35 -25 -63
-29 -63 -10 0 -41 118 -46 181 -5 54 -4 57 26 80 36 27 39 39 10 39 -31 0 -20
32 18 50 47 22 42 40 -11 40 -35 0 -54 -7 -88 -33 -57 -44 -88 -101 -119 -224
l-26 -102 -64 65 c-194 198 -427 286 -593 224 -69 -26 -139 -88 -160 -141 -23
-56 -13 -234 15 -295 39 -84 165 -153 277 -154 74 0 120 17 150 55 27 35 28
55 1 89 -20 26 -19 46 4 46 37 0 237 -168 329 -275 33 -38 71 -92 85 -119 l25
-49 -57 61 c-104 113 -229 151 -333 101 -45 -22 -88 -77 -73 -92 5 -5 30 -5
59 2 70 15 114 0 179 -62 64 -60 112 -136 146 -234 l26 -71 -72 44 c-101 63
-188 88 -287 82 -131 -8 -196 -62 -194 -163 1 -43 29 -109 43 -101 5 3 11 24
15 46 19 121 158 121 336 0 80 -54 163 -131 202 -188 l30 -44 -73 51 c-113 77
-199 90 -264 39 -44 -34 -68 -113 -49 -162 10 -25 20 -20 72 34 54 56 71 60
137 29 62 -29 127 -103 175 -199 l42 -83 -34 22 c-97 65 -212 98 -303 86 -74
-9 -151 -47 -175 -87 -26 -43 -26 -102 0 -128 24 -24 78 -26 106 -5 20 15 15
18 -27 15 -40 -2 -53 22 -27 49 47 52 150 66 244 34 27 -9 44 -18 39 -19 -6
-2 -29 -8 -52 -14 -53 -13 -98 -51 -125 -103 -17 -35 -20 -52 -14 -110 4 -39
14 -85 23 -104 22 -48 79 -82 155 -95 108 -19 186 11 96 37 -53 15 -57 25 -10
25 59 0 56 24 -5 39 -107 27 -128 60 -72 112 40 37 73 37 130 0 84 -54 116
-98 154 -211 19 -57 35 -105 35 -106 0 -2 -26 10 -57 25 -124 61 -259 78 -357
45 -59 -20 -151 -103 -166 -150 -31 -93 48 -194 151 -194 32 0 68 -31 69 -61
0 -21 36 -58 68 -70 32 -12 92 -3 92 14 0 7 -14 20 -31 30 -30 16 -31 19 -14
31 10 7 15 18 12 23 -10 16 17 23 91 23 111 0 234 -43 312 -110 l35 -29 -66
-1 c-165 0 -352 -111 -415 -245 -13 -27 -24 -64 -24 -81 0 -69 93 -149 146
-125 33 15 30 31 -5 31 -20 0 -36 9 -50 26 -33 42 -28 68 28 142 32 41 42 41
30 0 -15 -52 -1 -106 40 -151 50 -56 100 -77 187 -77 80 0 141 18 191 56 101
77 77 224 -37 224 -52 0 -76 -13 -95 -50 -18 -35 -5 -47 29 -25 14 9 37 15 53
13 23 -2 29 -8 31 -35 10 -98 -227 -133 -295 -44 -21 27 -15 94 10 132 47 69
129 104 233 97 68 -4 126 -36 224 -122 75 -66 183 -142 255 -178 l60 -31 -25
-16 c-132 -86 -174 -220 -100 -314 40 -50 134 -44 159 9 27 60 4 92 -28 39
-36 -61 -91 -35 -91 43 0 80 81 140 211 158 48 7 189 -12 189 -25 0 -4 -14
-20 -31 -37 -38 -36 -69 -94 -69 -131 0 -113 140 -171 235 -98 97 73 99 195 5
195 -36 0 -39 -11 -7 -25 51 -23 17 -96 -53 -115 -51 -14 -80 0 -80 38 0 32
38 77 100 118 40 27 52 29 157 33 62 2 113 1 113 -2 0 -2 -12 -26 -26 -51 -18
-32 -28 -68 -32 -111 -5 -65 -5 -65 35 -105 47 -46 85 -52 127 -19 32 25 37
66 7 49 -50 -26 -91 8 -77 64 9 35 121 153 168 177 21 11 86 31 146 44 151 35
152 36 152 87 0 24 -6 54 -13 68 -12 25 -14 25 -142 25 -125 0 -133 1 -197 32
-80 38 -103 67 -95 125 3 22 12 48 21 56 19 19 71 20 113 2 43 -19 52 -7 28
37 -25 46 -76 73 -136 73 -55 0 -103 -29 -138 -83 -20 -31 -30 -37 -59 -37
-88 0 -151 -102 -123 -197 5 -18 6 -33 2 -33 -22 0 -91 75 -110 119 -60 141
-26 237 99 279 75 26 75 50 0 74 -66 20 -100 22 -150 7 -38 -12 -92 -55 -122
-99 l-17 -25 0 43 c-1 30 3 42 13 42 9 0 19 20 26 51 l12 50 24 -22 c32 -30
40 -8 19 54 -15 44 -15 50 3 91 11 24 36 61 56 83 20 22 36 50 36 61 0 21 60
52 100 52 34 0 68 -22 75 -47 3 -14 14 -33 24 -44 17 -18 19 -18 32 -3 8 9 14
38 14 63 0 50 -38 118 -85 153 -60 44 -185 38 -281 -13 -71 -38 -110 -78 -153
-158 l-33 -63 -7 36 c-4 19 -17 48 -29 63 -13 15 -28 40 -35 56 -14 33 -67 67
-104 67 -15 0 -44 11 -64 25 -20 14 -49 25 -63 25 -70 -1 -174 -88 -187 -157
-10 -55 -27 -39 -19 20 13 95 123 269 205 323 75 50 170 23 170 -47 0 -32 -32
-59 -61 -52 -28 8 -33 22 -15 42 20 22 20 31 1 31 -20 0 -55 -36 -55 -55 0
-25 47 -65 75 -65 65 0 115 55 115 126 0 27 -8 44 -33 69 -50 50 -117 64 -183
38 -12 -4 -15 -3 -10 5 4 7 31 19 61 27 71 21 117 12 167 -33 40 -36 46 -60
28 -106 -8 -22 -7 -26 9 -26 33 0 71 56 71 103 0 139 -185 220 -355 156 -48
-18 -60 -19 -64 -8 -8 26 -69 76 -99 82 -63 13 -142 -30 -168 -91 l-16 -37
-10 30 c-24 80 18 182 116 281 132 132 277 173 326 92 17 -28 17 -34 5 -58 -9
-17 -33 -35 -66 -50 -52 -22 -89 -23 -156 -4 -39 11 -27 -21 19 -55 102 -75
234 -79 313 -10 102 90 77 265 -49 344 -129 79 -315 24 -480 -141 -50 -50 -56
-54 -40 -25 36 66 146 165 231 209 86 44 229 87 328 97 33 3 72 9 88 11 26 5
27 4 27 -38 0 -56 51 -159 99 -198 86 -72 211 -78 341 -18 114 53 180 136 180
227 l0 39 68 21 c91 27 142 82 142 150 0 42 -21 40 -54 -4 -15 -19 -40 -42
-56 -50 -39 -20 -140 -32 -140 -16 0 6 -31 43 -69 81 -60 59 -66 68 -43 64 38
-8 245 13 317 31 33 8 97 33 141 55 197 96 343 338 344 569 0 46 12 104 46
215 55 184 88 259 126 291 55 46 126 23 114 -37 -3 -15 -9 -41 -12 -58 -5 -24
-3 -30 10 -30 9 0 19 7 22 15 12 30 22 14 13 -20 -18 -63 7 -74 38 -17 40 71
35 132 -19 212 -55 82 -84 102 -151 108 -132 11 -198 -75 -322 -413 -61 -165
-119 -305 -128 -305 -2 0 2 23 9 52 18 69 18 142 -2 209 -17 58 -59 123 -74
114 -5 -3 -18 0 -29 7 -28 17 -34 6 -22 -39 16 -57 13 -161 -7 -219 -19 -53
-81 -164 -93 -164 -3 0 -9 20 -12 45 -16 114 -125 222 -244 241 l-39 6 0 71
c1 90 -24 148 -88 210 l-46 44 57 26 c86 38 146 51 214 44 53 -6 59 -5 59 12
0 21 -67 54 -135 66 l-40 7 35 15 c64 27 168 44 223 36 29 -4 56 -8 62 -8 5 0
10 17 11 37 3 35 1 38 -44 55 -100 38 -299 16 -424 -48 l-38 -19 -1 47 c0 27
-6 64 -12 83 -11 32 -10 40 21 100 43 85 60 175 43 230 -11 37 -24 50 -34 33z
m-215 -530 c-70 -87 -170 -175 -236 -207 l-67 -33 48 49 c26 27 89 80 138 118
50 37 101 80 114 94 36 38 38 23 3 -21z m154 -308 c80 -36 124 -109 124 -206
0 -47 1 -48 45 -68 109 -48 164 -120 173 -226 9 -117 -29 -175 -156 -239 -30
-15 -75 -30 -102 -33 -53 -6 -180 5 -180 15 0 4 20 18 45 31 85 45 125 112
125 209 0 83 -53 154 -124 168 l-34 6 5 52 c4 41 1 61 -16 93 -40 78 -103 108
-215 101 -97 -7 -180 -49 -265 -136 -85 -87 -53 -27 37 69 163 174 373 238
538 164z m-217 -201 c18 -4 45 -20 62 -36 24 -25 29 -38 29 -78 0 -46 2 -50
42 -77 22 -15 50 -40 61 -54 28 -38 32 -106 10 -149 -22 -41 -94 -88 -149 -96
l-39 -6 54 33 c83 52 112 129 76 199 -17 33 -72 70 -105 70 -21 0 -22 3 -16
43 8 53 -15 102 -63 134 -37 25 -26 30 38 17z m-58 -102 c14 -16 29 -47 33
-70 5 -32 13 -45 35 -56 42 -22 81 -73 81 -106 0 -35 -40 -85 -79 -98 l-29
-10 24 35 c13 20 24 46 24 59 0 28 -54 92 -85 100 -20 5 -21 10 -17 54 4 47 3
50 -29 70 -41 26 -105 22 -171 -10 l-43 -21 34 30 c75 66 175 76 222 23z m-61
-91 c5 -11 10 -29 10 -41 0 -12 14 -33 30 -47 44 -37 55 -61 40 -89 -7 -12
-20 -26 -29 -29 -13 -5 -14 -4 -3 6 22 23 15 78 -14 104 -15 14 -32 25 -39 25
-7 0 -10 11 -7 30 2 17 -1 37 -8 45 -8 10 -9 15 -2 15 6 0 16 -9 22 -19z m-50
-41 c6 -11 9 -24 6 -29 -3 -5 5 -16 19 -25 30 -19 42 -60 25 -81 -16 -20 -34
-19 -26 1 8 21 -9 51 -35 59 -16 5 -18 10 -9 20 16 19 3 54 -23 65 -21 8 -20
9 5 9 18 1 31 -6 38 -19z m-55 -52 c0 -9 10 -28 23 -41 20 -21 21 -26 8 -36
-8 -7 -32 -15 -53 -17 -103 -10 -133 -11 -133 -4 0 14 68 93 92 107 30 17 63
12 63 -9z m-1289 -282 c42 -31 -42 -55 -95 -27 -31 17 -26 29 17 34 20 2 42 4
48 5 5 1 19 -4 30 -12z m1384 -105 l115 -28 -200 -5 c-166 -4 -211 -8 -262
-25 -35 -12 -63 -20 -63 -18 0 9 106 69 151 85 73 26 123 24 259 -9z m66 -232
c33 -6 83 -24 114 -43 30 -18 62 -36 70 -39 8 -3 -52 -3 -135 0 -308 12 -539
-40 -710 -157 -38 -26 -45 -28 -45 -13 0 42 173 169 292 215 119 45 284 60
414 37z m334 -224 c0 -15 -29 -73 -44 -88 -25 -24 -88 -38 -132 -29 -31 6 -45
17 -71 56 -18 27 -33 52 -33 57 0 5 63 9 140 9 77 0 140 -2 140 -5z m-830
-720 c11 -13 7 -22 -30 -57 -39 -37 -41 -43 -26 -54 16 -11 16 -15 -5 -55 -12
-24 -30 -66 -39 -94 l-17 -50 -17 72 c-9 40 -16 86 -16 103 0 93 106 188 150
135z m443 -597 c16 -18 34 -32 38 -31 19 6 -27 -85 -61 -122 -60 -63 -73 -98
-79 -210 l-6 -99 -25 69 c-21 59 -25 88 -25 185 0 99 3 121 22 160 21 43 63
79 91 80 8 0 28 -15 45 -32z m-915 -37 c23 -1 2 -21 -22 -21 -72 0 -176 -71
-176 -120 0 -26 -31 -26 -55 0 -67 74 60 170 195 148 25 -4 51 -7 58 -7z
m1532 -638 c0 -10 11 -38 25 -62 14 -23 25 -45 25 -47 0 -7 -55 18 -72 33 -24
21 -34 73 -17 84 22 14 39 10 39 -8z"/>
<path d="M10560 4729 c-16 -58 1 -147 42 -229 31 -60 32 -68 21 -100 -6 -19
-12 -56 -12 -83 l-1 -47 -38 19 c-125 64 -324 86 -424 48 -45 -17 -47 -20 -44
-55 1 -20 6 -37 11 -37 6 0 33 4 62 8 55 8 159 -9 223 -36 l35 -15 -40 -7
c-68 -12 -135 -45 -135 -66 0 -17 6 -18 59 -12 68 7 128 -6 214 -44 l57 -26
-46 -46 c-65 -63 -88 -118 -88 -207 l1 -72 -39 -6 c-127 -20 -233 -134 -250
-266 -3 -24 -5 -23 -35 19 -67 90 -99 237 -74 337 13 52 10 60 -16 48 -10 -4
-25 -8 -33 -8 -20 -1 -57 -60 -75 -119 -19 -63 -19 -137 -2 -204 8 -29 11 -50
7 -48 -10 6 -79 175 -135 330 -109 302 -184 393 -312 383 -67 -6 -96 -26 -151
-109 -42 -61 -44 -67 -40 -126 3 -43 10 -71 24 -90 34 -46 46 -42 39 13 -5 38
-4 45 5 32 6 -10 18 -18 26 -18 13 0 14 8 8 43 -16 85 -6 107 48 107 39 0 81
-41 111 -107 46 -104 117 -356 117 -417 0 -293 204 -559 485 -631 72 -18 279
-39 317 -31 23 4 17 -5 -43 -64 -38 -38 -69 -74 -69 -80 0 -15 -48 -12 -108 5
-37 11 -60 26 -85 57 -36 43 -57 44 -57 2 0 -63 55 -119 142 -145 68 -21 68
-21 68 -57 0 -48 39 -129 81 -169 19 -18 66 -46 104 -64 125 -57 252 -49 336
21 48 39 99 142 99 198 0 42 1 43 28 38 15 -2 54 -8 87 -11 189 -20 366 -96
473 -204 37 -37 76 -83 86 -102 16 -29 10 -25 -38 24 -69 70 -156 128 -235
158 -43 16 -73 20 -127 17 -90 -4 -154 -40 -199 -112 -25 -42 -30 -59 -30
-116 0 -56 4 -73 28 -109 50 -76 131 -104 232 -82 75 17 174 86 153 106 -2 3
-29 -1 -60 -7 -47 -10 -62 -9 -100 5 -88 34 -112 84 -62 134 22 22 32 25 74
21 138 -14 319 -175 351 -314 8 -36 9 -63 2 -90 l-10 -39 -16 37 c-28 63 -104
104 -169 91 -30 -6 -91 -56 -99 -82 -4 -11 -16 -10 -64 8 -170 64 -355 -17
-355 -156 0 -47 38 -103 71 -103 16 0 17 4 9 26 -6 14 -10 36 -10 48 0 32 67
91 114 100 41 8 127 -13 161 -38 18 -13 14 -13 -25 0 -99 34 -211 -27 -210
-115 1 -45 18 -77 56 -102 40 -26 80 -24 109 6 30 29 31 49 5 75 -20 20 -50
27 -50 11 0 -5 7 -14 15 -21 20 -17 19 -27 -6 -40 -32 -18 -71 12 -67 52 7 69
96 92 168 44 86 -56 195 -231 206 -331 8 -65 -9 -72 -20 -9 -10 48 -76 118
-132 140 -37 14 -51 15 -83 5 -21 -6 -44 -18 -51 -26 -7 -8 -27 -15 -44 -15
-41 0 -93 -33 -108 -67 -7 -16 -22 -41 -35 -56 -12 -15 -25 -44 -29 -63 l-7
-36 -33 63 c-43 80 -82 120 -153 158 -96 51 -221 57 -281 13 -34 -25 -68 -77
-82 -124 -10 -32 -9 -44 6 -75 l17 -36 19 21 c11 12 20 26 20 32 0 20 49 60
74 60 14 0 44 -7 66 -16 30 -12 40 -22 40 -38 0 -12 15 -37 34 -55 19 -19 45
-57 57 -84 21 -50 21 -53 4 -99 -21 -58 -12 -78 20 -48 26 24 26 24 40 -48 4
-18 13 -32 21 -32 10 0 14 -12 14 -42 l0 -42 -27 37 c-73 95 -164 118 -282 71
-56 -22 -50 -42 19 -66 124 -42 160 -140 100 -276 -23 -50 -41 -74 -80 -102
l-26 -18 0 66 c0 103 -46 162 -126 162 -29 0 -39 6 -59 37 -51 79 -142 106
-219 65 -33 -18 -79 -87 -66 -100 4 -3 21 0 39 8 42 18 94 17 113 -2 9 -8 18
-34 21 -56 8 -58 -15 -87 -95 -125 -64 -31 -72 -32 -194 -32 -80 0 -131 -4
-138 -11 -6 -6 -14 -36 -17 -67 -7 -67 -11 -65 149 -102 60 -13 125 -33 146
-44 46 -24 159 -142 168 -175 14 -57 -16 -88 -66 -69 -27 10 -30 9 -30 -7 0
-24 46 -60 77 -60 14 0 37 7 53 16 67 40 80 132 30 230 -16 32 -30 61 -30 63
0 2 51 2 113 0 105 -4 117 -6 157 -33 62 -41 100 -86 100 -118 0 -55 -75 -59
-131 -7 -35 33 -36 68 -1 85 37 18 37 24 -1 24 -89 0 -104 -105 -25 -176 60
-55 138 -69 194 -35 34 21 64 75 64 115 0 36 -31 94 -69 130 -17 17 -31 33
-31 36 0 8 116 30 157 30 46 0 145 -29 180 -53 42 -28 63 -67 63 -114 0 -74
-61 -98 -90 -36 -18 38 -34 38 -38 0 -2 -19 5 -36 27 -57 87 -87 204 24 170
163 -12 50 -69 121 -129 159 l-25 15 55 28 c78 39 165 99 240 165 36 31 92 74
124 96 58 38 62 39 145 39 93 0 143 -18 189 -68 29 -31 50 -90 44 -123 -15
-81 -156 -115 -258 -61 -42 22 -56 41 -52 74 4 35 39 43 85 17 41 -22 49 -15
29 25 -20 38 -44 51 -96 51 -114 0 -138 -147 -37 -224 50 -38 111 -56 191 -56
87 0 137 21 188 78 42 47 54 92 39 148 -6 21 -9 39 -7 41 4 4 60 -66 74 -94
28 -52 -5 -113 -61 -113 -34 0 -35 -17 -3 -31 33 -15 93 14 124 61 44 65 17
153 -75 244 -92 92 -219 146 -342 146 l-66 1 35 29 c48 40 144 86 210 100 76
16 195 10 195 -10 0 -8 7 -20 15 -27 12 -9 10 -14 -18 -30 -41 -23 -41 -40 2
-48 49 -10 100 17 122 63 24 54 44 72 76 72 43 0 91 23 121 59 59 70 49 133
-32 212 -68 67 -124 89 -226 89 -81 0 -153 -19 -237 -61 -32 -16 -58 -28 -58
-26 0 2 16 50 35 107 38 113 70 157 154 211 58 37 94 37 132 0 53 -54 32 -85
-75 -112 -55 -14 -55 -32 0 -40 39 -5 37 -9 -20 -26 -82 -25 -1 -53 102 -35
76 13 133 47 155 95 9 19 19 65 23 104 6 58 3 75 -14 110 -27 52 -72 90 -125
103 -23 6 -46 12 -52 14 -5 1 12 10 39 19 69 24 150 22 203 -4 73 -35 80 -85
11 -76 -30 4 -35 -2 -16 -21 17 -17 69 -15 96 4 17 11 22 25 22 57 0 60 -30
103 -92 132 -122 57 -268 37 -406 -56 l-34 -22 40 79 c49 98 110 167 173 199
69 36 85 32 142 -26 59 -62 77 -59 77 9 0 60 -30 109 -80 134 -68 35 -142 17
-248 -59 l-66 -47 34 48 c45 62 120 132 200 186 177 120 321 121 337 2 7 -53
18 -61 37 -24 43 83 23 165 -52 209 -35 21 -62 27 -122 31 -99 6 -186 -19
-287 -81 l-71 -45 18 54 c34 99 90 191 149 247 69 66 111 81 183 66 55 -12 70
-5 57 28 -15 41 -84 77 -156 81 -56 4 -71 1 -128 -27 -41 -20 -81 -51 -114
-87 -56 -61 -61 -62 -32 -6 53 103 351 382 408 382 23 0 24 -20 4 -46 -27 -34
-26 -54 1 -89 85 -109 359 -46 426 98 14 29 22 75 27 149 5 93 4 113 -13 150
-38 86 -137 149 -247 156 -158 10 -324 -68 -491 -230 l-80 -78 -13 68 c-28
140 -64 212 -133 262 -30 22 -52 30 -85 30 -52 0 -57 -18 -10 -40 38 -18 49
-50 18 -50 -29 0 -26 -12 10 -39 30 -23 31 -26 26 -80 -5 -64 -36 -181 -47
-181 -11 0 -48 120 -60 197 -23 140 8 239 103 331 70 66 104 87 171 102 56 12
93 5 107 -22 9 -16 7 -24 -9 -41 -18 -17 -23 -18 -36 -7 -9 7 -16 21 -16 31 0
28 -19 23 -26 -8 -6 -21 -2 -31 20 -50 36 -31 61 -29 97 6 22 23 29 39 29 69
0 103 -150 152 -311 102 -154 -47 -270 -170 -308 -325 -18 -74 -15 -227 7
-312 l18 -73 -40 35 c-23 18 -40 39 -38 46 2 7 8 48 15 91 24 167 -33 358
-160 536 -63 89 -196 221 -273 272 -36 24 -100 68 -142 98 l-78 55 -1 66 c0
73 -4 85 -35 124 -29 36 -49 26 -63 -29 -7 -25 -16 -42 -21 -39 -18 11 -63
108 -75 159 -14 63 -31 69 -45 15z m375 -577 c44 -33 102 -82 128 -109 l48
-50 -67 33 c-71 34 -212 164 -248 227 l-19 32 39 -36 c21 -20 75 -63 119 -97z
m16 -227 c88 -29 164 -81 241 -164 92 -98 115 -146 30 -62 -86 85 -161 123
-258 129 -80 5 -130 -8 -174 -44 -39 -34 -64 -102 -57 -158 6 -43 6 -44 -25
-50 -73 -14 -128 -87 -128 -168 0 -97 49 -174 136 -216 19 -8 34 -19 34 -23 0
-11 -126 -22 -180 -16 -27 3 -72 18 -102 33 -127 64 -165 122 -156 239 9 105
64 178 172 225 l43 20 5 64 c7 84 39 141 99 179 83 51 194 55 320 12z m-42
-218 c-48 -32 -71 -81 -63 -134 6 -40 5 -43 -16 -43 -35 0 -86 -37 -104 -74
-35 -74 -9 -142 75 -195 l54 -33 -39 6 c-55 8 -127 55 -149 96 -22 43 -18 111
10 149 11 14 39 39 61 54 38 25 42 33 42 68 0 32 22 98 33 99 1 0 20 7 42 15
22 8 51 14 64 15 22 0 21 -2 -10 -23z m163 -62 c24 -9 60 -29 79 -46 l34 -30
-43 21 c-66 32 -130 36 -171 10 -32 -20 -33 -23 -29 -70 4 -43 3 -49 -16 -54
-31 -8 -75 -57 -82 -91 -4 -22 1 -40 19 -67 l25 -36 -29 10 c-16 5 -41 24 -55
41 -21 25 -25 38 -20 65 6 38 36 76 78 98 21 11 29 24 34 55 11 64 54 107 110
108 11 1 41 -6 66 -14z m-61 -109 c-7 -8 -11 -27 -9 -43 2 -23 -3 -31 -27 -44
-39 -21 -53 -59 -37 -102 l11 -32 -24 28 c-14 15 -25 33 -25 39 0 6 18 28 40
50 22 22 40 49 40 60 0 25 18 58 32 58 7 0 7 -5 -1 -14z m72 -36 c-26 -11 -39
-46 -23 -65 9 -10 7 -15 -9 -20 -26 -8 -43 -38 -35 -59 8 -20 -10 -21 -26 -1
-17 21 -5 59 25 79 15 10 25 26 25 40 0 29 7 36 39 35 25 0 25 -1 4 -9z m76
-55 c25 -13 91 -89 91 -105 0 -8 -141 1 -167 11 -28 10 -29 30 -3 54 11 10 17
22 14 26 -8 13 5 29 22 29 8 0 28 -7 43 -15z m1314 -285 c58 0 12 -41 -49 -43
-46 -1 -66 19 -39 39 11 8 29 13 40 10 11 -3 32 -6 48 -6z m-1173 -118 c36
-18 76 -41 90 -51 24 -20 23 -19 -40 1 -55 18 -97 22 -265 26 l-200 5 110 28
c144 37 216 34 305 -9z m-5 -242 c90 -28 185 -78 258 -135 52 -41 103 -103 92
-113 -2 -2 -24 10 -49 28 -172 117 -403 169 -711 157 -82 -3 -143 -3 -135 0 8
3 40 21 70 39 70 43 135 54 285 50 88 -3 138 -10 190 -26z m-415 -209 c0 -5
-15 -30 -32 -57 -27 -39 -41 -50 -72 -56 -44 -9 -107 5 -132 29 -15 15 -44 73
-44 88 0 3 63 5 140 5 77 0 140 -4 140 -9z m644 -731 c58 -51 69 -129 35 -245
-11 -39 -12 -40 -22 -15 -5 14 -23 54 -39 89 -26 58 -27 65 -12 76 15 11 13
16 -24 50 -33 31 -39 42 -31 57 15 27 54 22 93 -12z m-455 -565 c17 -8 39 -34
52 -62 21 -43 24 -62 24 -168 -1 -106 -4 -128 -27 -185 l-27 -65 -1 90 c-1
105 -19 157 -79 220 -32 34 -83 134 -62 120 4 -2 22 11 39 30 34 39 41 41 81
20z m1038 -68 c44 -23 75 -65 67 -91 -15 -50 -74 -79 -74 -36 0 49 -104 120
-176 120 -44 0 -34 19 13 25 27 4 52 8 58 9 18 5 80 -10 112 -27z m-1698 -616
c17 -11 7 -63 -17 -84 -19 -17 -72 -40 -72 -31 0 3 9 19 20 34 11 16 23 42 26
59 7 32 18 38 43 22z"/>
<path d="M7962 4471 c-8 -123 -67 -559 -87 -637 -32 -127 -102 -300 -186 -461
-38 -73 -67 -133 -65 -133 3 0 27 28 54 63 121 151 214 349 251 532 25 123 43
389 39 550 -2 66 -5 104 -6 86z"/>
<path d="M4415 4310 c7 -224 55 -518 108 -660 36 -97 166 -208 305 -261 18 -7
0 17 -60 79 -200 208 -278 397 -332 807 -24 179 -25 182 -21 35z"/>
<path d="M7381 4214 c0 -11 3 -14 6 -6 3 7 2 16 -1 19 -3 4 -6 -2 -5 -13z"/>
<path d="M7341 4080 c-99 -322 -283 -565 -502 -664 -66 -30 -44 -33 36 -6 142
49 275 181 367 365 52 102 149 397 136 410 -2 2 -19 -45 -37 -105z"/>
<path d="M5556 4043 c67 -302 151 -484 292 -634 113 -121 268 -204 412 -223
39 -5 35 -2 -27 18 -284 93 -536 406 -660 819 -15 51 -27 65 -17 20z"/>
<path d="M4334 3923 c7 -168 26 -287 63 -402 32 -103 72 -158 138 -191 46 -23
61 -25 185 -25 74 0 153 4 175 9 l40 9 -60 9 c-95 13 -195 68 -288 159 l-79
78 7 -37 c7 -36 7 -36 -13 -19 -40 37 -98 218 -142 444 -10 52 -21 98 -25 101
-4 4 -5 -57 -1 -135z"/>
<path d="M8537 3783 c-37 -143 -87 -274 -127 -331 -41 -59 -108 -115 -182
-150 -31 -15 -57 -30 -57 -34 -2 -14 91 -20 137 -9 130 33 196 128 236 346 15
80 33 285 25 285 -2 0 -17 -48 -32 -107z"/>
<path d="M5838 3567 c62 -103 166 -208 269 -268 168 -100 429 -115 677 -39 75
23 84 36 15 21 -242 -54 -514 -24 -698 76 -84 45 -172 113 -215 166 -74 89
-77 92 -48 44z"/>
<path d="M8547 3437 c-34 -103 -75 -169 -115 -186 -17 -7 -77 -21 -133 -30
l-101 -17 33 -29 c61 -51 225 -116 260 -103 8 3 27 29 43 57 26 49 29 63 36
219 5 91 8 168 6 169 -1 1 -14 -35 -29 -80z"/>
<path d="M4896 3260 c-72 -23 -159 -81 -186 -125 -12 -20 -20 -50 -20 -78 0
-52 15 -71 23 -29 8 40 63 117 109 153 22 18 68 47 101 65 69 38 61 42 -27 14z"/>
<path d="M4771 3235 c-69 -40 -215 -144 -361 -259 -74 -58 -138 -106 -142
-106 -11 0 -10 12 7 60 19 53 19 55 -1 39 -31 -25 -59 -95 -55 -138 1 -13 38
-12 97 5 20 5 21 4 11 -29 l-11 -35 -271 -1 c-297 -2 -410 -11 -488 -42 -118
-47 -223 -148 -315 -305 -51 -86 -55 -108 -7 -36 92 136 250 267 376 312 59
21 88 23 384 29 176 4 338 4 360 -1 22 -5 92 -13 156 -17 76 -6 132 -16 165
-29 59 -25 188 -36 218 -20 14 8 75 11 179 9 101 -2 157 1 157 8 0 5 -8 10
-17 10 -10 1 -43 4 -73 7 -79 8 -113 7 -218 -4 -105 -11 -148 -4 -175 31 l-17
22 -21 -24 c-17 -21 -22 -22 -30 -10 -5 7 -9 19 -9 26 0 7 -7 10 -15 7 -9 -4
-15 0 -15 8 0 18 -47 18 -79 0 -13 -8 -52 -15 -86 -15 -49 -2 -67 2 -84 17
-12 11 -21 14 -21 8 0 -7 -9 -12 -21 -12 -18 0 -20 4 -14 33 9 39 27 61 66 77
16 7 28 15 25 17 -2 3 -14 -1 -26 -7 -11 -6 -31 -10 -43 -8 -17 2 -4 14 58 49
48 28 130 92 204 160 69 63 143 131 165 151 48 44 46 46 -13 13z"/>
<path d="M8000 3192 c0 -5 10 -17 21 -28 35 -31 97 -129 126 -196 36 -85 47
-95 38 -33 -9 68 -49 152 -93 198 -38 40 -92 74 -92 59z"/>
<path d="M4572 3169 c-76 -33 -163 -51 -221 -46 l-54 6 6 -91 c3 -49 8 -93 11
-96 7 -6 260 184 295 222 29 30 21 31 -37 5z"/>
<path d="M8120 3155 c0 -3 14 -20 30 -38 52 -55 75 -113 77 -195 1 -41 5 -77
8 -80 4 -4 69 -7 146 -7 l139 0 0 60 c0 42 6 70 20 93 21 34 27 82 11 82 -5 0
-13 -15 -16 -32 -12 -57 -21 -60 -78 -29 -29 16 -69 32 -89 35 -20 4 -64 27
-98 52 l-61 45 67 -93 c38 -51 85 -114 107 -140 27 -33 34 -48 23 -48 -8 0
-50 44 -93 98 -42 53 -95 116 -117 140 -38 41 -76 70 -76 57z"/>
<path d="M5301 3095 c-18 -9 -70 -51 -115 -94 -45 -44 -101 -89 -126 -100 -25
-11 -37 -21 -27 -21 36 0 90 34 164 102 41 38 95 82 120 98 50 32 41 39 -16
15z"/>
<path d="M7600 3107 c0 -3 26 -11 58 -17 89 -18 88 -17 200 -103 113 -85 180
-121 206 -111 25 10 15 25 -25 38 -20 7 -74 40 -120 74 -105 76 -176 108 -256
117 -35 4 -63 5 -63 2z"/>
<path d="M5135 3039 c-49 -33 -109 -67 -133 -76 -39 -15 -45 -15 -59 -1 -8 9
-18 31 -23 49 l-7 34 -12 -28 c-6 -16 -11 -45 -11 -66 0 -84 72 -83 183 1 61
46 172 148 161 147 -5 0 -49 -27 -99 -60z"/>
<path d="M4599 3004 c-13 -14 -53 -49 -89 -77 l-64 -52 54 -6 c30 -4 72 -10
93 -14 28 -6 37 -4 37 6 1 8 14 30 30 49 29 33 40 57 21 46 -4 -3 -20 0 -35 7
-22 10 -25 17 -20 40 7 34 4 34 -27 1z"/>
<path d="M7434 3021 c3 -4 26 -14 50 -20 32 -8 65 -29 113 -72 102 -91 195
-132 260 -114 25 7 20 9 -37 22 -70 15 -106 35 -190 108 -30 26 -68 53 -85 60
-39 16 -118 28 -111 16z"/>
<path d="M5538 2987 c-24 -18 -54 -52 -67 -76 -28 -51 -92 -95 -171 -118 -84
-24 -179 -13 -350 42 -130 43 -151 47 -208 42 -72 -7 -92 -15 -69 -29 9 -5 33
-4 59 3 41 11 50 9 184 -44 231 -91 303 -110 387 -105 84 5 135 27 166 69 l23
31 -23 -7 c-13 -4 -30 -10 -36 -12 -7 -3 -13 0 -13 6 0 22 99 159 141 195 53
45 36 48 -23 3z"/>
<path d="M5610 2990 c-44 -27 -79 -59 -92 -84 -6 -12 5 -7 31 15 37 29 51 34
109 37 37 1 78 5 91 8 22 5 23 7 8 21 -26 26 -106 28 -147 3z"/>
<path d="M6298 2904 c-46 -24 -33 -55 28 -68 17 -4 43 -2 57 3 22 9 27 17 27
46 0 33 -1 35 -16 21 -19 -20 -61 -21 -66 -2 -3 12 -7 12 -30 0z"/>
<path d="M6466 2905 c-20 -53 13 -80 85 -69 54 9 68 36 32 64 -23 18 -28 19
-35 5 -12 -20 -55 -19 -66 1 -8 15 -10 15 -16 -1z"/>
<path d="M5531 2879 c-26 -42 -27 -95 -2 -132 26 -40 53 -56 105 -63 43 -6 46
-5 56 20 13 36 13 177 0 156 -5 -8 -10 -48 -10 -87 0 -45 -4 -73 -11 -73 -18
0 -118 101 -121 123 -2 12 0 35 4 51 11 42 2 44 -21 5z"/>
<path d="M6429 2795 c0 -66 -4 -145 -7 -175 l-7 -55 -55 -1 c-35 -1 -61 3 -71
12 -14 13 -18 12 -29 -1 -17 -21 -47 -19 -67 4 -13 16 -21 17 -42 10 -28 -11
-71 -4 -71 11 0 6 -15 10 -33 10 -21 0 -41 8 -52 20 -17 19 -18 19 -35 -3 -15
-18 -20 -19 -33 -8 -9 7 -21 10 -27 6 -6 -4 -36 5 -66 20 -30 15 -64 25 -75
22 -15 -4 -23 2 -34 26 l-13 32 -1 -31 c-2 -52 50 -87 192 -128 178 -52 436
-73 497 -41 27 14 34 14 66 0 57 -24 155 -19 282 15 98 26 140 31 341 40 126
5 243 15 260 21 17 6 43 8 58 4 23 -5 25 -4 14 9 -7 9 -23 14 -35 12 -11 -3
-40 -7 -63 -10 -40 -6 -43 -5 -49 21 -9 35 -22 44 -52 36 -21 -5 -22 -3 -15
23 10 36 7 144 -4 155 -4 4 -9 -36 -10 -89 -2 -78 -6 -99 -20 -109 -24 -18
-30 -16 -41 15 l-9 27 -16 -31 c-21 -41 -31 -44 -143 -44 -67 0 -104 -5 -125
-16 -28 -14 -32 -14 -50 2 -17 16 -19 16 -19 1 0 -10 -4 -17 -10 -17 -5 0 -10
7 -10 15 0 21 -9 19 -30 -7 -18 -23 -19 -23 -33 -4 -14 19 -15 19 -21 -1 -4
-13 -18 -24 -34 -27 -30 -6 -91 -9 -107 -6 -5 1 -22 1 -36 0 -14 0 -30 5 -35
12 -6 7 -8 60 -6 118 l4 105 50 -4 c45 -3 51 -6 63 -33 l12 -30 11 30 c10 30
11 30 96 33 64 3 90 8 103 21 9 10 15 19 12 22 -2 2 -33 -2 -69 -10 -36 -7
-113 -14 -172 -14 l-108 0 0 38 c0 20 -5 44 -10 52 -7 10 -10 -24 -11 -105z"/>
<path d="M8065 2848 c-16 -6 -39 -17 -50 -24 -11 -8 -30 -14 -42 -14 -14 0
-23 -6 -23 -15 0 -8 -11 -17 -25 -21 -14 -3 -39 -24 -56 -45 -17 -21 -36 -39
-42 -39 -7 -1 -50 -16 -97 -35 -100 -40 -76 -47 50 -14 l79 20 20 -20 c12 -12
27 -21 35 -21 35 0 285 31 322 40 72 17 246 39 410 51 l159 13 -105 25 c-58
15 -107 25 -109 24 -2 -1 7 -12 20 -23 l24 -20 -30 6 c-16 4 -34 11 -39 15
-13 12 -53 11 -61 -1 -8 -13 -55 -13 -55 -1 0 5 6 11 13 14 6 2 9 7 6 10 -8
10 -71 -11 -80 -25 -7 -10 -11 -10 -21 0 -19 19 -36 14 -54 -18 -18 -29 -18
-29 -36 -10 -33 35 -88 21 -88 -22 0 -17 -2 -17 -22 -4 -26 16 -137 41 -145
32 -3 -3 6 -8 20 -11 32 -8 53 -30 38 -40 -6 -3 -20 -1 -32 6 -17 9 -31 8 -60
-1 -43 -14 -89 -7 -89 15 0 17 30 35 58 35 15 0 19 5 15 19 -3 14 9 27 54 55
55 36 61 37 122 32 39 -3 61 -2 55 4 -15 15 -107 20 -139 8z"/>
<path d="M6093 2815 c24 -21 38 -25 97 -25 81 0 100 -6 100 -30 0 -31 18 -33
22 -3 3 25 7 28 48 31 25 2 49 7 55 13 5 5 -30 9 -95 9 -58 0 -136 7 -175 15
-88 19 -85 19 -52 -10z"/>
<path d="M6140 2722 c0 -11 9 -31 21 -46 17 -22 29 -26 68 -26 34 0 53 5 64
18 30 33 21 41 -39 35 -47 -5 -60 -3 -85 16 -27 20 -29 21 -29 3z"/>
<path d="M6514 2706 c7 -55 30 -76 80 -74 l41 1 -37 4 c-42 5 -52 14 -73 69
l-15 39 4 -39z"/>
<path d="M6717 2722 c-13 -13 -34 -17 -82 -17 -55 0 -65 -2 -65 -17 0 -25 34
-39 88 -36 43 3 48 6 66 41 21 43 18 55 -7 29z"/>
<path d="M8874 2715 c-17 -13 -12 -14 58 -15 99 0 285 -32 390 -67 151 -50
254 -142 337 -302 31 -61 81 -194 81 -218 0 -3 -7 1 -16 8 -11 9 -8 -3 10 -39
19 -38 24 -57 17 -69 -6 -11 -4 -24 5 -39 8 -12 17 -44 21 -72 3 -31 10 -49
16 -45 15 9 1 176 -24 273 -46 181 -130 332 -243 438 -108 101 -203 132 -457
152 -171 13 -172 13 -195 -5z"/>
<path d="M6350 2706 c0 -27 -40 -65 -73 -69 -31 -4 -31 -4 6 -5 44 -2 77 25
77 63 0 14 -2 25 -5 25 -3 0 -5 -6 -5 -14z"/>
<path d="M5050 2651 c-67 -14 -121 -62 -119 -105 0 -11 3 -15 6 -8 2 6 13 12
23 12 10 0 32 11 48 25 33 28 150 57 195 48 16 -3 47 0 68 7 35 12 44 11 69
-3 15 -9 35 -17 44 -17 9 0 15 -3 14 -7 -1 -5 4 -19 11 -33 8 -13 22 -57 32
-97 16 -65 53 -153 64 -153 2 0 -7 29 -20 64 -13 35 -29 95 -36 132 -6 38 -15
73 -20 79 -5 5 -9 13 -9 17 0 9 196 3 221 -7 9 -3 21 1 29 10 7 8 20 15 28 15
13 0 13 3 4 13 -10 9 -89 12 -315 14 -166 1 -318 -2 -337 -6z"/>
<path d="M4846 2597 c-5 -20 -5 -47 -2 -60 4 -12 11 -59 16 -104 5 -45 14 -90
20 -100 11 -18 11 -17 -4 167 -3 30 -3 44 0 30 18 -95 42 -179 76 -270 42
-110 65 -150 53 -92 -4 20 -3 32 4 32 6 0 11 -5 11 -12 0 -12 108 -208 115
-208 1 0 -1 17 -6 38 -13 56 -12 57 32 17 82 -74 289 -195 333 -195 23 0 27
29 7 49 -10 10 -68 44 -129 76 -244 127 -389 292 -470 539 -11 32 -24 61 -30
65 -6 3 -12 20 -14 36 -4 30 -4 30 -12 -8z"/>
<path d="M5289 2609 c-15 -30 -3 -114 33 -227 16 -52 31 -92 32 -90 2 1 -6 65
-17 141 -17 115 -19 142 -8 159 11 17 10 22 -1 29 -20 13 -26 11 -39 -12z"/>
<path d="M7515 2611 l-40 -6 35 -12 c19 -7 59 -15 88 -19 43 -5 50 -9 41 -20
-9 -11 -7 -14 12 -14 36 0 74 -23 75 -45 0 -26 14 -55 25 -55 11 0 1 56 -19
98 -25 56 -119 87 -217 73z"/>
<path d="M5502 2593 c8 -10 31 -52 51 -93 20 -41 48 -88 62 -105 24 -28 24
-26 -5 25 -34 60 -80 158 -80 170 0 7 -24 20 -37 20 -4 0 0 -8 9 -17z"/>
<path d="M7890 2571 c0 -17 -16 -74 -36 -128 -20 -54 -47 -127 -60 -163 -13
-36 -24 -57 -24 -47 0 10 -18 -17 -41 -62 -59 -114 -107 -160 -234 -222 -96
-47 -115 -53 -193 -58 -85 -6 -87 -7 -87 -31 0 -19 9 -29 35 -42 77 -39 185
-14 316 74 109 73 180 171 200 272 3 20 11 34 16 33 6 -1 16 22 24 50 7 29 25
75 38 101 54 106 82 231 56 247 -6 4 -10 -6 -10 -24z"/>
<path d="M7332 2541 c10 -21 22 -74 27 -117 l8 -79 2 88 c1 84 -8 123 -33 139
-22 15 -23 7 -4 -31z"/>
<path d="M7445 2525 c11 -90 57 -310 67 -320 28 -28 -24 285 -57 343 -16 26
-16 26 -10 -23z"/>
<path d="M5750 2500 c60 -52 147 -95 245 -121 101 -27 446 -39 576 -19 96 14
202 45 218 63 9 11 0 11 -52 1 -106 -22 -344 -37 -502 -31 -202 7 -384 55
-485 127 -47 34 -48 22 0 -20z"/>
<path d="M5925 2514 c41 -33 124 -63 225 -81 124 -22 443 -13 558 16 71 18
162 54 162 65 0 2 -25 -2 -56 -10 -214 -49 -671 -41 -858 16 l-61 19 30 -25z"/>
<path d="M7387 2420 c-3 -69 -13 -152 -22 -185 -18 -62 -72 -191 -79 -184 -2
2 0 31 5 64 6 32 9 82 7 110 l-3 50 -17 -56 c-55 -176 -192 -355 -291 -380
-26 -6 -50 -15 -53 -20 -2 -5 2 -22 11 -39 l16 -30 -412 0 c-379 0 -413 1
-424 17 -11 15 -28 17 -122 15 -242 -8 -379 66 -459 246 -19 43 -48 103 -65
135 -25 48 -28 58 -14 63 20 8 19 20 -1 28 -9 4 -27 -1 -40 -9 -44 -29 -26
-101 66 -262 27 -49 50 -102 50 -117 0 -34 -50 -85 -92 -93 -21 -4 -26 -8 -16
-14 7 -5 -417 -9 -943 -9 l-955 0 -26 28 c-103 110 -197 331 -198 467 0 36 -3
46 -10 35 -13 -21 -12 -151 1 -208 14 -59 77 -196 116 -254 16 -24 33 -49 37
-55 6 -10 -29 -13 -158 -13 l-166 0 0 133 c0 72 7 177 15 231 18 121 18 133
-2 81 -24 -64 -42 -180 -49 -317 l-7 -128 -171 -2 -171 -3 -3 -62 -3 -63 -74
0 -75 0 0 -264 0 -264 68 -12 c37 -7 81 -18 97 -25 17 -7 95 -21 175 -31 80
-9 150 -21 155 -25 6 -4 168 -13 360 -19 229 -7 358 -15 374 -23 33 -17 5258
-17 5269 -1 5 8 124 15 361 23 195 7 361 16 370 20 9 5 81 16 160 26 79 10
156 24 170 31 14 8 34 14 43 14 9 0 40 5 68 11 l50 11 0 113 c0 110 -1 114
-22 117 -23 3 -23 6 -25 148 l-1 145 -66 3 -65 3 -3 62 -3 62 -204 3 -203 2 6
23 c3 13 8 50 11 82 l6 60 -28 -80 c-28 -79 -29 -80 -65 -83 l-36 -3 41 81
c38 74 41 88 45 175 5 104 -11 133 -21 39 -7 -66 -53 -169 -109 -241 l-40 -53
-122 1 c-115 1 -119 1 -76 13 138 39 220 135 255 303 8 37 14 84 14 103 0 32
-2 30 -19 -23 -53 -169 -210 -290 -450 -351 l-95 -24 45 -10 c32 -7 -124 -10
-530 -10 -327 0 -551 4 -520 8 122 18 335 30 515 28 212 -1 261 7 426 68 112
41 160 77 195 145 38 75 80 280 54 264 -6 -4 -10 -14 -10 -23 -1 -26 -37 -100
-66 -136 -69 -81 -212 -163 -357 -201 -240 -65 -954 -142 -988 -108 -13 13 17
17 271 32 318 20 619 76 746 138 44 22 65 39 81 69 25 45 43 143 42 229 l0 60
-18 -50 c-42 -117 -116 -231 -177 -272 -83 -57 -278 -103 -542 -128 -178 -17
-392 -20 -392 -5 0 15 32 19 205 24 88 2 176 9 195 16 19 6 80 13 135 15 146
5 253 43 342 120 51 44 110 158 118 230 l5 50 -14 -36 c-37 -96 -121 -189
-228 -252 -68 -40 -191 -91 -248 -101 -31 -6 -27 -3 26 27 164 90 260 191 292
310 6 20 8 37 6 37 -2 0 -32 -28 -67 -63 -135 -138 -346 -244 -586 -297 -91
-21 -171 -26 -171 -11 0 4 53 21 118 36 181 43 335 101 415 157 42 30 27 31
-32 2 -63 -30 -252 -85 -371 -108 -47 -9 -95 -19 -107 -22 -21 -4 -23 -1 -23
35 l0 39 93 17 c190 36 353 103 433 177 48 44 53 66 6 26 -82 -69 -280 -146
-441 -172 -74 -13 -88 -13 -97 0 -8 10 -13 -9 -18 -82 -7 -104 -19 -173 -43
-246 l-15 -48 -384 0 c-211 0 -384 3 -384 8 0 4 13 22 29 41 l29 35 27 -18
c15 -10 41 -22 56 -26 27 -8 30 -6 44 27 8 19 47 78 86 131 79 108 119 180
143 262 20 67 31 228 19 290 -8 39 -10 29 -16 -80z m-1802 -638 c1 -27 -3 -32
-22 -32 -19 0 -23 5 -23 28 0 33 8 44 30 40 10 -2 15 -15 15 -36z m423 -29
c-49 -2 -127 -2 -175 0 -49 1 -9 3 87 3 96 0 136 -2 88 -3z"/>
<path d="M5705 2439 c87 -88 191 -142 315 -165 116 -22 413 -15 518 11 98 25
93 39 -10 31 -46 -3 -166 -6 -268 -7 -156 0 -198 3 -265 21 -94 24 -219 84
-293 140 -29 22 -56 40 -59 40 -4 0 24 -32 62 -71z"/>
<path d="M5641 2401 c56 -101 180 -178 345 -213 147 -32 432 -32 557 0 49 12
96 26 105 31 25 14 -164 22 -418 19 -191 -3 -235 0 -290 15 -103 28 -205 81
-267 139 l-56 53 24 -44z"/>
<path d="M3667 2288 c-3 -13 -9 -59 -13 -104 -17 -207 68 -379 203 -413 51
-13 553 -14 553 -1 0 4 -26 10 -57 14 -101 12 -255 55 -342 96 -136 65 -240
186 -311 363 -23 57 -28 65 -33 45z"/>
<path d="M3953 2205 c10 -264 121 -362 469 -415 93 -14 530 -25 631 -15 l77 7
-24 29 c-32 38 -64 124 -79 217 -13 75 -26 79 -28 9 -1 -30 -2 -28 -16 16 -11
38 -18 47 -37 47 -86 0 -278 77 -375 151 -29 22 -55 38 -58 35 -3 -2 0 -29 7
-59 32 -156 162 -242 384 -256 67 -4 111 -10 113 -17 9 -29 -194 -18 -331 17
-162 41 -261 110 -369 258 -35 47 -47 58 -47 42 0 -68 94 -237 167 -302 85
-74 200 -101 436 -100 126 0 167 -3 164 -12 -6 -19 -350 -21 -467 -3 -132 21
-260 59 -358 107 -99 48 -136 92 -212 250 l-51 104 4 -110z"/>
<path d="M5650 2298 c0 -28 60 -116 114 -166 100 -94 247 -146 448 -158 112
-7 281 8 375 32 169 44 288 142 309 255 l7 34 -24 -21 c-66 -60 -219 -113
-393 -138 -388 -56 -678 -5 -806 140 -16 19 -30 29 -30 22z"/>
<path d="M3401 2225 c-1 -136 55 -277 153 -381 l61 -66 55 4 55 3 -66 37
c-125 71 -190 171 -234 363 l-24 100 0 -60z"/>
<path d="M7119 2234 c-30 -57 -150 -154 -253 -205 -146 -71 -228 -90 -423 -96
-252 -8 -453 26 -612 104 -82 41 -172 117 -202 172 l-20 36 6 -35 c4 -19 22
-67 40 -106 97 -201 330 -297 725 -298 196 0 294 20 430 86 112 56 238 178
294 286 21 41 36 75 34 78 -3 2 -11 -8 -19 -22z"/>
<path d="M9411 2146 c-57 -115 -194 -225 -375 -298 -67 -27 -68 -28 -26 -22
245 36 402 156 430 328 4 28 7 52 5 54 -1 1 -16 -26 -34 -62z"/>
</g>
</svg>
